<?xml version="1.0" encoding="UTF-8"?>
<svg version="1.1" xmlns="http://www.w3.org/2000/svg" width="250" height="247">
<path d="M0 0 C0.09352999 27.30370044 0.16402174 54.6073768 0.20724869 81.91120529 C0.2278551 94.58945834 0.25593909 107.26761171 0.30175781 119.94580078 C0.34168424 130.99886272 0.36744677 142.05185247 0.37635398 153.10498452 C0.38155885 158.95504716 0.3937524 164.80490328 0.42292023 170.6548996 C0.45018093 176.16734399 0.45842344 181.67949785 0.45243073 187.19200325 C0.4535262 189.20912571 0.4614162 191.22625844 0.4768219 193.24332237 C0.57940603 207.37431505 0.01803773 219.50214384 -9.66796875 230.6796875 C-20.620305 241.57698688 -33.62221634 247 -49 247 C-49 242.71 -49 238.42 -49 234 C-55.04790261 233.84500427 -61.08975699 233.7709391 -67.13964844 233.76806641 C-69.19197104 233.75614554 -71.24429399 233.72306257 -73.29589844 233.66748047 C-85.76990142 232.84822203 -85.76990142 232.84822203 -96.66894531 237.72949219 C-98.21055019 239.33236412 -99.62319646 240.99069499 -101.02783203 242.71411133 C-103.27001443 245.42310605 -104.66500299 246.89204344 -108.05761719 247.98535156 C-111.20195529 248.17180564 -114.11774627 248.06606183 -117.25 247.75 C-118.29285156 247.69585937 -119.33570313 247.64171875 -120.41015625 247.5859375 C-122.94927261 247.44616963 -125.46986498 247.25082681 -128 247 C-127.24968559 243.53673494 -126.33097573 241.96875939 -123.75 239.5 C-122.80447266 238.59121094 -122.80447266 238.59121094 -121.83984375 237.6640625 C-120.38035188 236.34401253 -118.85615504 235.09556445 -117.3125 233.875 C-114.92571637 232.08211716 -114.92571637 232.08211716 -113.1875 229.6875 C-111.39038773 227.47961921 -109.81349618 225.92251916 -107.66235352 224.11621094 C-101.57619954 218.84496423 -95.92158247 213.12691576 -90.21484375 207.453125 C-89.61309389 206.85545067 -89.01134403 206.25777634 -88.39135933 205.64199066 C-85.20970553 202.48106805 -82.03124772 199.31697029 -78.85522461 196.15039062 C-75.60036675 192.90660337 -72.3339922 189.67467451 -69.06490231 186.44524002 C-66.52807378 183.93471432 -64.00032218 181.41519184 -61.47482491 178.8932724 C-60.27548468 177.69875838 -59.0728097 176.50758171 -57.86655998 175.32004547 C-41.73845285 159.42683264 -31.2644274 141.28860407 -30.5625 118.125 C-30.67746506 105.10560053 -34.30654047 88.02577018 -43.60522461 78.32543945 C-44.06550049 77.88804443 -44.52577637 77.45064941 -45 77 C-45.78141357 77.78474449 -45.78141357 77.78474449 -46.57861328 78.58534241 C-51.51818945 83.54505857 -56.46024481 88.5022883 -61.40501404 93.45682621 C-63.94632359 96.00332694 -66.48670605 98.55073765 -69.02490234 101.1003418 C-71.48007864 103.56648205 -73.93777792 106.03008301 -76.39715576 108.492033 C-77.77901905 109.87660956 -79.15834075 111.26372123 -80.53759766 112.65089417 C-84.26053197 116.37415535 -87.97936661 120.04511035 -91.9765625 123.47436523 C-96.58668717 127.43544162 -100.84330652 131.73016541 -105.12033081 136.04516602 C-106.59931909 137.53714243 -108.08160502 139.02577553 -109.56469727 140.51367188 C-112.71265249 143.67294765 -115.8566327 146.83616023 -119 150 C-122.64814783 153.67190789 -126.29799344 157.34209557 -129.95211792 161.00805664 C-131.39865069 162.46097908 -132.84209167 163.91692281 -134.28540039 165.37304688 C-138.08885906 169.19055056 -141.87978883 172.96470661 -145.97265625 176.47265625 C-150.71725958 180.54355819 -155.09184617 184.97936101 -159.49072266 189.41555786 C-161.0369274 190.97473727 -162.58641896 192.53058621 -164.13671875 194.08569336 C-167.42732983 197.38763136 -170.71396962 200.69350416 -174 204 C-177.81336505 207.83711476 -181.62842149 211.67251675 -185.44775391 215.50369263 C-186.96076052 217.02309466 -188.4706797 218.54551703 -189.98046875 220.06811523 C-194.63863691 224.7498845 -199.33153849 229.30613162 -204.41394043 233.53016663 C-206.0202609 235.01877618 -207.10388667 236.469614 -208.28125 238.30859375 C-211.12585835 242.3200925 -213.39245182 245.08662175 -218 247 C-228.55015027 248.54382183 -239.40369291 247.73454671 -250 247 C-247.98597845 243.31491225 -245.92560251 240.81185551 -242.73095703 238.10205078 C-236.32056532 232.47820665 -230.34381876 226.45686942 -224.33468246 220.40984726 C-222.25902808 218.32124322 -220.18010306 216.23594229 -218.10037231 214.15139771 C-213.68907025 209.7287617 -209.28173915 205.30218192 -204.875 200.875 C-199.75562516 195.73191789 -194.63457794 190.59052369 -189.50928116 185.45334244 C-187.47333196 183.41096966 -185.44044658 181.36558184 -183.40768433 179.32003784 C-182.14677669 178.05549423 -180.8857265 176.79109274 -179.62451172 175.52685547 C-179.07053711 174.96771454 -178.5165625 174.40857361 -177.94580078 173.83248901 C-175.07090028 170.95720973 -172.13045156 168.21260793 -169.05361938 165.55361938 C-165.03251784 162.07199006 -161.26229334 158.39011831 -157.51757812 154.61523438 C-156.8172496 153.91344559 -156.11692108 153.2116568 -155.39537048 152.48860168 C-153.88891646 150.97836912 -152.38361774 149.46698341 -150.87937927 147.95454407 C-148.49300047 145.55529417 -146.10341784 143.15927612 -143.7130127 140.76403809 C-138.63918622 135.678835 -133.56930185 130.58971305 -128.5 125.5 C-122.62144456 119.59777496 -116.74124709 113.69720548 -110.85679626 107.80085754 C-108.51284929 105.45047046 -106.17195622 103.0970713 -103.83117676 100.74353027 C-102.38174145 99.29045943 -100.93216386 97.83753049 -99.48242188 96.38476562 C-98.84114853 95.73832596 -98.19987518 95.09188629 -97.53916931 94.42585754 C-93.79614057 90.68239882 -89.92709363 87.15632539 -85.92228699 83.69546318 C-82.98509388 81.1048496 -80.22318024 78.35491841 -77.46386719 75.57739258 C-76.86440277 74.97807419 -76.26493835 74.3787558 -75.64730835 73.76127625 C-73.69477987 71.80805925 -71.74580456 69.8513387 -69.796875 67.89453125 C-68.42805605 66.52384342 -67.05901334 65.15337903 -65.6897583 63.78312683 C-62.10527907 60.19485174 -58.52381222 56.6035849 -54.94299316 53.01165771 C-51.29714839 49.35556439 -47.64845774 45.70231362 -44 42.04882812 C-38.11256464 36.15262698 -32.22686791 30.25469706 -26.34341431 24.35452271 C-24.89578707 22.90283808 -23.44790453 21.45140806 -22 20 C-21.25711731 19.21554001 -20.51423462 18.43108002 -19.74884033 17.62284851 C-18 16 -18 16 -16 16 C-16 15.34 -16 14.68 -16 14 C-14.49609375 12.51953125 -14.49609375 12.51953125 -12.4375 10.8125 C-8.88007067 7.79944598 -5.58344853 4.63888173 -2.34765625 1.28515625 C-1 0 -1 0 0 0 Z M-54.92494202 194.78599548 C-55.46662521 195.32970291 -56.00830841 195.87341034 -56.56640625 196.43359375 C-57.39663551 197.26238792 -57.39663551 197.26238792 -58.24363708 198.10792542 C-59.41585337 199.27945971 -60.58680178 200.45226374 -61.7565918 201.6262207 C-63.55472051 203.42969737 -65.358107 205.22779153 -67.16210938 207.02539062 C-68.29719579 208.16113782 -69.43197198 209.29719516 -70.56640625 210.43359375 C-71.11011368 210.97527695 -71.65382111 211.51696014 -72.21400452 212.07505798 C-74.82244085 214.18414088 -74.82244085 214.18414088 -76 217 C-67.42 217 -58.84 217 -50 217 C-48.95383357 213.8615007 -48.95830634 211.94961697 -49.12109375 208.67578125 C-49.19360352 207.13374023 -49.19360352 207.13374023 -49.26757812 205.56054688 C-49.32365234 204.48869141 -49.37972656 203.41683594 -49.4375 202.3125 C-49.51581055 200.68731445 -49.51581055 200.68731445 -49.59570312 199.02929688 C-49.72541216 196.35257409 -49.86037933 193.67622112 -50 191 C-52.14672326 191 -53.48499498 193.3551183 -54.92494202 194.78599548 Z " fill="#5655FE" transform="translate(250,0)"/>
<path d="M0 0 C4.33061589 1.1761422 8.40911803 2.71806882 12.4375 4.6875 C11.08461478 7.79486857 9.68304079 9.56610556 7.0612793 11.69262695 C1.7934739 16.15661424 -3.02665379 21.03897849 -7.88570213 25.93553734 C-9.57812481 27.64089348 -11.27380048 29.34295693 -12.97029114 31.04426575 C-16.56637187 34.6516841 -20.15847396 38.26304776 -23.75 41.875 C-27.92620345 46.07487886 -32.10406194 50.27308402 -36.28615761 54.46709633 C-37.95051168 56.13789567 -39.61180839 57.81169376 -41.272995 59.48564148 C-42.29797727 60.51425774 -43.32310103 61.54273304 -44.34838867 62.57104492 C-45.23693039 63.46482346 -46.12547211 64.35860199 -47.04093933 65.27946472 C-49.44812939 67.57827857 -51.94799139 69.63136299 -54.5625 71.6875 C-56.25005668 73.33301147 -57.91660544 75.00031695 -59.5625 76.6875 C-66.22916667 83.35416667 -72.89583333 90.02083333 -79.5625 96.6875 C-84.23124333 93.57500444 -84.44503275 88.98234484 -85.5625 83.6875 C-86.0625 80.3125 -86.0625 80.3125 -85.5625 77.6875 C-82.52389548 74.41491562 -79.22149808 71.42911987 -75.93202209 68.41273499 C-68.69648611 61.76381881 -61.69058794 54.9005697 -54.75390625 47.94140625 C-54.28291882 47.46897869 -53.81193138 46.99655113 -53.3266716 46.50980759 C-49.92252768 43.09343296 -46.52330742 39.67217884 -43.125 36.25 C-40.17136762 33.2758101 -37.21704045 30.30232977 -34.2587738 27.33274841 C-32.43432719 25.50087117 -30.61212628 23.66675344 -28.7926178 21.82997131 C-24.3916666 17.41154514 -19.93535613 13.14853177 -15.17462158 9.11816406 C-13.12879137 7.30260884 -11.46918873 5.24680904 -9.75 3.125 C-6.44485394 -0.24520799 -4.65808018 -0.7763467 0 0 Z " fill="#FE1819" transform="translate(165.5625,49.3125)"/>
<path d="M0 0 C0.64161072 0.2587793 1.28322144 0.51755859 1.9442749 0.78417969 C2.93943115 1.17734375 3.9345874 1.57050781 4.9598999 1.97558594 C6.02724365 2.42804688 7.0945874 2.88050781 8.1942749 3.34667969 C9.27193115 3.80171875 10.3495874 4.25675781 11.4598999 4.72558594 C12.27974365 5.07492188 13.0995874 5.42425781 13.9442749 5.78417969 C13.38049917 9.29169719 12.353004 10.62306453 9.6005249 12.81542969 C6.02974744 15.80062511 2.68615034 18.94763867 -0.5869751 22.25292969 C-1.31376465 22.98479492 -1.31376465 22.98479492 -2.05523682 23.73144531 C-3.5574754 25.24698676 -5.05703697 26.76512763 -6.5557251 28.28417969 C-12.26306515 34.06907014 -17.94570489 39.79841936 -24.12994385 45.08105469 C-27.86392475 48.38331772 -31.31366329 51.98009192 -34.8057251 55.53417969 C-36.27728532 57.03133226 -37.75116194 58.52621235 -39.2276001 60.01855469 C-39.86794189 60.67049805 -40.50828369 61.32244141 -41.16802979 61.99414062 C-44.822261 65.45932729 -46.87476752 67.17163623 -52.0401001 67.07714844 C-52.97467041 67.06748047 -53.90924072 67.0578125 -54.87213135 67.04785156 C-55.84021729 67.02271484 -56.80830322 66.99757813 -57.8057251 66.97167969 C-58.78927979 66.95814453 -59.77283447 66.94460937 -60.78619385 66.93066406 C-63.20992924 66.89536695 -65.63254655 66.84606023 -68.0557251 66.78417969 C-66.6357996 63.55369221 -64.91953123 61.40175481 -62.4229126 58.92089844 C-61.69845947 58.19837891 -60.97400635 57.47585937 -60.2276001 56.73144531 C-59.46963135 55.98572266 -58.7116626 55.24 -57.9307251 54.47167969 C-57.19595947 53.73755859 -56.46119385 53.0034375 -55.7041626 52.24707031 C-52.34194118 48.91148621 -48.94614688 45.68064902 -45.35211182 42.59594727 C-40.61876963 38.47564209 -36.26155127 34.02606449 -31.8838501 29.53417969 C-30.15137037 27.77448089 -28.41827991 26.01538322 -26.68463135 24.25683594 C-23.9772376 21.50595785 -21.27390796 18.7515188 -18.58062744 15.98681641 C-15.96380262 13.30375484 -13.3316502 10.63657998 -10.6963501 7.97167969 C-9.48534637 6.71726074 -9.48534637 6.71726074 -8.24987793 5.4375 C-7.11784943 4.30006348 -7.11784943 4.30006348 -5.96295166 3.13964844 C-5.30313293 2.46571045 -4.64331421 1.79177246 -3.96350098 1.09741211 C-2.0557251 -0.21582031 -2.0557251 -0.21582031 0 0 Z " fill="#FE1316" transform="translate(114.05572509765625,179.2158203125)"/>
<path d="M0 0 C-4.10094228 4.8862291 -8.35039538 9.50549253 -12.875 14 C-13.44863281 14.5775 -14.02226562 15.155 -14.61328125 15.75 C-17.62290463 18.75292043 -20.69159877 21.63236336 -23.9140625 24.40625 C-28.33041752 28.2248788 -32.4109906 32.33650956 -36.5 36.5 C-41.19471978 41.2802338 -45.90202908 45.95996359 -51.03125 50.27709961 C-53.04132396 51.98268483 -53.04132396 51.98268483 -54.875 53.97485352 C-58.63156878 57.78867533 -61.16328661 59.4341798 -66.59375 59.68359375 C-68.56367206 59.6376289 -70.53304516 59.5549494 -72.5 59.4375 C-73.51320313 59.40591797 -74.52640625 59.37433594 -75.5703125 59.34179688 C-78.04996334 59.25992161 -80.52339766 59.14536301 -83 59 C-81.37724852 54.92362878 -78.46284177 52.17387958 -75.40625 49.140625 C-74.58525818 48.316763 -74.58525818 48.316763 -73.74768066 47.47625732 C-72.5935222 46.32074141 -71.43684833 45.16773315 -70.27783203 44.01708984 C-68.49926054 42.249265 -66.73165237 40.4709787 -64.96484375 38.69140625 C-63.84178692 37.56967029 -62.71811024 36.44855449 -61.59375 35.328125 C-61.0635022 34.79382874 -60.53325439 34.25953247 -59.98693848 33.70904541 C-56.22993854 30 -56.22993854 30 -54 30 C-53.74444336 29.40525879 -53.48888672 28.81051758 -53.22558594 28.19775391 C-51.87489961 25.77566659 -50.54208514 24.56645978 -48.390625 22.8359375 C-45.28663431 20.2194773 -42.61214809 17.50805339 -39.984375 14.4140625 C-27.58457374 0.17152111 -27.58457374 0.17152111 -17.89160156 -0.60791016 C-14.59782255 -0.62921926 -11.3587396 -0.51390049 -8.08007812 -0.19628906 C-5.38284938 0.05823816 -2.70690448 0.04365975 0 0 Z " fill="#FE1316" transform="translate(166,188)"/>
<path d="M0 0 C-1.3521463 3.10553173 -2.75012453 4.873104 -5.37182617 6.99633789 C-10.67572544 11.49073973 -15.50705962 16.42612714 -20.38433266 21.37029839 C-22.0838574 23.09210352 -23.78754003 24.80969348 -25.49247742 26.52613831 C-30.33340173 31.40044142 -35.16983192 36.27914139 -39.99633789 41.16772461 C-42.96230175 44.17124328 -45.93545705 47.16747747 -48.91341209 50.1591053 C-50.04412726 51.29788196 -51.17205731 52.43943098 -52.29714394 53.58376884 C-53.86230483 55.17528508 -55.43641407 56.75739876 -57.01293945 58.33764648 C-58.35241386 59.69163795 -58.35241386 59.69163795 -59.71894836 61.07298279 C-62 63 -62 63 -65 63 C-62.49218295 44.09237933 -54.58605953 26.71956772 -39.32910156 14.68164062 C-27.95016883 6.38383213 -14.36187382 -0.59841141 0 0 Z " fill="#FE1214" transform="translate(144,49)"/>
<path d="M0 0 C0.33 0.99 0.66 1.98 1 3 C-9 13 -9 13 -11.375 15.3125 C-14.01747457 18.01789063 -16.44825246 20.83441983 -18.86328125 23.7421875 C-20.71850451 25.70255138 -22.5997284 27.41364399 -24.64453125 29.16796875 C-30.35904083 34.09947904 -35.55261013 39.54059904 -40.81640625 44.94335938 C-41.58597656 45.72388672 -42.35554688 46.50441406 -43.1484375 47.30859375 C-43.84114746 48.01814209 -44.53385742 48.72769043 -45.24755859 49.45874023 C-47 51 -47 51 -49 51 C-49 51.66 -49 52.32 -49 53 C-53.39911249 57.74266222 -58.31184295 62.00594004 -63.09179688 66.359375 C-63.69443359 66.91367188 -64.29707031 67.46796875 -64.91796875 68.0390625 C-65.46219482 68.53615723 -66.0064209 69.03325195 -66.56713867 69.54541016 C-68.23294484 71.14495785 -68.23294484 71.14495785 -70 74 C-70.66 74 -71.32 74 -72 74 C-72.495 75.485 -72.495 75.485 -73 77 C-74.70703125 78.6484375 -74.70703125 78.6484375 -76.8125 80.375 C-79.14582006 82.34903007 -81.08458277 84.10572847 -83 86.5 C-84.73615022 88.67018778 -86.33582992 90.21729441 -88.4375 92 C-93.11020427 95.96605712 -97.35462907 100.32583445 -101.60717773 104.73242188 C-103.03539989 106.19114064 -104.51394371 107.60024443 -106 109 C-106.66 109 -107.32 109 -108 109 C-108.24878906 109.5878125 -108.49757812 110.175625 -108.75390625 110.78125 C-110.17403805 113.30988593 -111.70130218 114.66773363 -113.9375 116.5 C-116.15041123 118.31996437 -117.92891607 119.90317584 -119.62890625 122.21875 C-120.30759766 123.10046875 -120.30759766 123.10046875 -121 124 C-121.66 124 -122.32 124 -123 124 C-123.2371875 124.57621094 -123.474375 125.15242188 -123.71875 125.74609375 C-125.27119286 128.47706793 -127.10214505 130.04222936 -129.5 132.0625 C-132.18490128 134.33333371 -134.03471999 136.05207998 -136 139 C-136.66 139 -137.32 139 -138 139 C-138.25007813 139.58910156 -138.50015625 140.17820313 -138.7578125 140.78515625 C-140.16438247 143.29309705 -141.65554334 144.62424578 -143.875 146.4375 C-146.19116803 148.39254506 -148.09982718 150.12478397 -150 152.5 C-152.91690402 156.14613003 -156.43543312 159.00221291 -160 162 C-160.91652344 162.77150391 -160.91652344 162.77150391 -161.8515625 163.55859375 C-163.22967314 164.7113735 -164.61408239 165.85661797 -166 167 C-166 164 -166 164 -164.83542633 162.46348953 C-164.28536674 161.91489651 -163.73530716 161.36630348 -163.1685791 160.80108643 C-162.54066467 160.16760284 -161.91275024 159.53411926 -161.26580811 158.88143921 C-160.56772034 158.19256622 -159.86963257 157.50369324 -159.15039062 156.79394531 C-158.4219696 156.06347992 -157.69354858 155.33301453 -156.9430542 154.58041382 C-154.52131898 152.15565914 -152.08897513 149.74184966 -149.65625 147.328125 C-147.9708939 145.64582652 -146.28612793 143.96293665 -144.60192871 142.27947998 C-141.06207206 138.74423483 -137.51735224 135.21396612 -133.96875 131.6875 C-129.43388202 127.18078506 -124.90761295 122.66556098 -120.38455963 118.14699173 C-116.90021126 114.66681665 -113.41304081 111.18948156 -109.92485046 107.71315765 C-108.25635109 106.05033421 -106.58830515 104.38705565 -104.92073059 102.72330475 C-102.57797767 100.38748201 -100.23189032 98.05506162 -97.88476562 95.72363281 C-97.2028717 95.04285675 -96.52097778 94.36208069 -95.81842041 93.66067505 C-91.96939762 89.84544071 -88.00789036 86.22695148 -83.90814209 82.68354988 C-80.97610733 80.09662159 -78.21874199 77.35045087 -75.46386719 74.57739258 C-74.86440277 73.97807419 -74.26493835 73.3787558 -73.64730835 72.76127625 C-71.69477987 70.80805925 -69.74580456 68.8513387 -67.796875 66.89453125 C-66.42805605 65.52384342 -65.05901334 64.15337903 -63.6897583 62.78312683 C-60.10527907 59.19485174 -56.52381222 55.6035849 -52.94299316 52.01165771 C-49.29714839 48.35556439 -45.64845774 44.70231362 -42 41.04882812 C-36.11256464 35.15262698 -30.22686791 29.25469706 -24.34341431 23.35452271 C-22.89578707 21.90283808 -21.44790453 20.45140806 -20 19 C-19.25711731 18.21554001 -18.51423462 17.43108002 -17.74884033 16.62284851 C-16 15 -16 15 -14 15 C-14 14.34 -14 13.68 -14 13 C-12.4609375 11.484375 -12.4609375 11.484375 -10.375 9.75 C-6.72639996 6.65323448 -3.34103014 3.42455589 0 0 Z " fill="#413FF6" transform="translate(248,1)"/>
<path d="M0 0 C0.99 0.33 1.98 0.66 3 1 C-1.9768667 6.00237575 -6.95777154 11.00070483 -11.94140625 15.99633789 C-13.63372911 17.69366667 -15.3251505 19.39189477 -17.015625 21.09106445 C-19.45592369 23.54359341 -21.89952506 25.99279096 -24.34375 28.44140625 C-25.08991577 29.19273331 -25.83608154 29.94406036 -26.6048584 30.71815491 C-29.93243398 34.0460795 -33.27928177 37.28854035 -36.85351562 40.35131836 C-41.6310821 44.47058096 -46.05190534 48.93908131 -50.49072266 53.41555786 C-52.0369274 54.97473727 -53.58641896 56.53058621 -55.13671875 58.08569336 C-58.42732983 61.38763136 -61.71396962 64.69350416 -65 68 C-68.81336505 71.83711476 -72.62842149 75.67251675 -76.44775391 79.50369263 C-77.96076052 81.02309466 -79.4706797 82.54551703 -80.98046875 84.06811523 C-85.61512553 88.72714558 -90.29232516 93.27480061 -95.30407715 97.53016663 C-98.17849254 100.02138353 -100.83394926 102.72724179 -103.5 105.4375 C-104.03625 105.97826172 -104.5725 106.51902344 -105.125 107.07617188 C-106.41904036 108.38176617 -107.70988174 109.69052996 -109 111 C-109.66 110.01 -110.32 109.02 -111 108 C-110.54149658 107.57178955 -110.08299316 107.1435791 -109.6105957 106.70239258 C-107.51039009 104.73999225 -105.41143685 102.77625728 -103.3125 100.8125 C-102.59126953 100.13896484 -101.87003906 99.46542969 -101.12695312 98.77148438 C-96.80796691 94.72859773 -92.57170228 90.62780924 -88.43334961 86.39916992 C-86.72943763 84.65893661 -85.02106974 82.92315918 -83.3125 81.1875 C-82.73177734 80.59001953 -82.15105469 79.99253906 -81.55273438 79.37695312 C-80.07274424 77.87985327 -78.54017218 76.43511269 -77 75 C-76.34 75 -75.68 75 -75 75 C-74.773125 74.443125 -74.54625 73.88625 -74.3125 73.3125 C-71.82823796 68.93546689 -67.91099387 65.91586687 -64.125 62.6875 C-61.38224091 60.31828832 -58.96019493 57.89529021 -56.625 55.125 C-54.13478939 52.18161993 -51.52441005 49.61979549 -48.6171875 47.08984375 C-44.40304868 43.33572337 -40.37560373 39.44500884 -36.40625 35.43359375 C-35.5604689 34.57948914 -35.5604689 34.57948914 -34.69760132 33.70812988 C-32.36435695 31.34737231 -30.03517814 28.98267806 -27.70996094 26.61401367 C-25.98801488 24.86207761 -24.26006768 23.1162452 -22.53125 21.37109375 C-21.74071228 20.56036659 -21.74071228 20.56036659 -20.9342041 19.73326111 C-19.66027121 18.45050993 -18.33445434 17.21966685 -17 16 C-16.34 16 -15.68 16 -15 16 C-14.5978125 15.0409375 -14.5978125 15.0409375 -14.1875 14.0625 C-13 12 -13 12 -10 11 C-9.31636776 9.67528524 -8.65218799 8.34047494 -8 7 C-6.16015625 5.04296875 -6.16015625 5.04296875 -4.0625 3.1875 C-3.02802734 2.24970703 -3.02802734 2.24970703 -1.97265625 1.29296875 C-1.32167969 0.86628906 -0.67070312 0.43960938 0 0 Z " fill="#4140F9" transform="translate(141,136)"/>
<path d="M0 0 C1.65 0.33 3.3 0.66 5 1 C5 4 5 4 3.67118835 5.40522766 C3.03679337 5.91256943 2.40239838 6.41991119 1.7487793 6.94262695 C-1.86743346 9.9761949 -5.27169598 13.1631996 -8.60229492 16.50463867 C-9.10680837 17.01021459 -9.61132181 17.5157905 -10.13112354 18.0366869 C-11.1960688 19.10622272 -12.26007056 20.17669868 -13.32320213 21.24803734 C-15.01562481 22.95339348 -16.71130048 24.65545693 -18.40779114 26.35676575 C-22.00387187 29.9641841 -25.59597396 33.57554776 -29.1875 37.1875 C-33.36370345 41.38737886 -37.54156194 45.58558402 -41.72365761 49.77959633 C-43.38801168 51.45039567 -45.04930839 53.12419376 -46.710495 54.79814148 C-47.73547727 55.82675774 -48.76060103 56.85523304 -49.78588867 57.88354492 C-50.67443039 58.77732346 -51.56297211 59.67110199 -52.47843933 60.59196472 C-54.88562939 62.89077857 -57.38549139 64.94386299 -60 67 C-61.68755668 68.64551147 -63.35410544 70.31281695 -65 72 C-71.66666667 78.66666667 -78.33333333 85.33333333 -85 92 C-88 90 -88 90 -88.8125 87.125 C-89.00455315 83.92411417 -88.72217143 82.63390925 -87 80 C-86.34 81.98 -85.68 83.96 -85 86 C-80.42855127 83.32403001 -77.44390084 80.33584886 -74.05607605 76.28912354 C-71.97759138 73.97505146 -69.79883276 71.96386819 -67.45825195 69.91699219 C-61.73640865 64.81963339 -56.32005876 59.44731793 -50.91796875 54.015625 C-49.89070946 52.98649325 -48.8632237 51.95758751 -47.83552551 50.92889404 C-45.16057387 48.2501695 -42.48863774 45.56845765 -39.81738281 42.88604736 C-37.0994919 40.15787683 -34.37872931 37.43257346 -31.65820312 34.70703125 C-26.87595967 29.91528405 -22.09619376 25.12108016 -17.31828308 20.32501221 C-15.65369298 18.65559041 -13.98740523 16.98786069 -12.32002258 15.32122803 C-10.92638703 13.92686837 -9.53702136 12.52819338 -8.15625 11.12109375 C-4.92651239 7.838035 -1.68034727 4.78814187 2 2 C1.01 1.01 1.01 1.01 0 0 Z " fill="#F90505" transform="translate(171,54)"/>
<path d="M0 0 C3.7122551 3.33151098 5.08814833 5.18021262 6 10 C6.60457031 10.25652344 7.20914063 10.51304688 7.83203125 10.77734375 C13.18340408 13.79532519 15.23789281 22.30386609 16.828125 27.9296875 C19.42912692 41.34342595 19.23409974 56.34915973 14 69 C13.56816406 70.04800781 13.13632813 71.09601563 12.69140625 72.17578125 C11.46972369 75.12097065 10.2388563 78.06200087 9 81 C8.01 81 7.02 81 6 81 C5.82984375 81.59167969 5.6596875 82.18335938 5.484375 82.79296875 C3.04689922 90.74069563 -0.77708408 94.95938534 -7.03515625 100.28515625 C-8.73993869 101.773028 -10.31402728 103.30241581 -11.875 104.9375 C-14 107 -14 107 -16 107 C-16.08636719 107.58652344 -16.17273438 108.17304688 -16.26171875 108.77734375 C-17.203792 111.61353253 -18.52567584 112.66600575 -20.8125 114.5625 C-21.49957031 115.14128906 -22.18664062 115.72007812 -22.89453125 116.31640625 C-24.90040693 117.9203625 -26.93493465 119.47324382 -29 121 C-29 118 -29 118 -26.63256836 115.35546875 C-25.541842 114.29240685 -24.44369134 113.23693084 -23.33984375 112.1875 C-22.14115092 111.01705521 -20.94258761 109.84647776 -19.74414062 108.67578125 C-17.85400117 106.84724237 -15.96062382 105.02220489 -14.0637207 103.20068359 C-6.60036159 96.011995 0.01059119 89.20606655 5 80 C5.62390625 78.86949219 6.2478125 77.73898438 6.890625 76.57421875 C15.01796116 59.31530663 16.57791198 41.09311564 10.7109375 22.95800781 C8.40958405 16.61980223 5.43023639 10.12221714 1.28515625 4.796875 C0 3 0 3 0 0 Z " fill="#3838FA" transform="translate(205,73)"/>
<path d="M0 0 C0.64161072 0.2587793 1.28322144 0.51755859 1.9442749 0.78417969 C2.93943115 1.17734375 3.9345874 1.57050781 4.9598999 1.97558594 C6.02724365 2.42804688 7.0945874 2.88050781 8.1942749 3.34667969 C9.27193115 3.80171875 10.3495874 4.25675781 11.4598999 4.72558594 C12.27974365 5.07492188 13.0995874 5.42425781 13.9442749 5.78417969 C13.38876796 9.38323877 12.19540242 10.78327767 9.3817749 13.03417969 C8.74111084 13.55496094 8.10044678 14.07574219 7.44036865 14.61230469 C6.94665771 14.99902344 6.45294678 15.38574219 5.9442749 15.78417969 C5.2842749 15.12417969 4.6242749 14.46417969 3.9442749 13.78417969 C5.2642749 12.13417969 6.5842749 10.48417969 7.9442749 8.78417969 C4.73965473 6.64776624 2.76149228 5.3714439 -1.0557251 4.78417969 C-3.14343089 6.13248968 -4.78824248 7.64161832 -6.5401001 9.40136719 C-8.0557251 10.78417969 -8.0557251 10.78417969 -10.0557251 10.78417969 C-10.29057617 11.34500244 -10.52542725 11.9058252 -10.76739502 12.48364258 C-12.36842614 15.34256171 -14.33710672 17.29003657 -16.66900635 19.59277344 C-17.58746338 20.50478516 -18.50592041 21.41679687 -19.45220947 22.35644531 C-20.42408684 23.31165352 -21.3960931 24.26673061 -22.3682251 25.22167969 C-23.32897355 26.17238491 -24.28926467 27.12355254 -25.24908447 28.07519531 C-27.02781771 29.83652655 -28.80860018 31.5957925 -30.59210205 33.35229492 C-32.33545493 35.07318859 -34.05020895 36.82328029 -35.74395752 38.59301758 C-38.0557251 40.78417969 -38.0557251 40.78417969 -40.0557251 40.78417969 C-40.36703369 41.60015625 -40.36703369 41.60015625 -40.68463135 42.43261719 C-42.57577461 45.67611645 -45.21769551 47.94057549 -47.9932251 50.40917969 C-48.80050049 51.14394531 -48.80050049 51.14394531 -49.62408447 51.89355469 C-52.0193702 54.05551418 -54.36634994 55.99126291 -57.0557251 57.78417969 C-57.7157251 57.12417969 -58.3757251 56.46417969 -59.0557251 55.78417969 C-57.55913607 54.25998963 -56.05823705 52.74003138 -54.5557251 51.22167969 C-53.7204126 50.37476563 -52.8851001 49.52785156 -52.0244751 48.65527344 C-49.90878555 46.56152643 -47.70855687 44.61333473 -45.44342041 42.68286133 C-40.68166212 38.53059644 -36.29119068 34.05647698 -31.8838501 29.53417969 C-30.15137037 27.77448089 -28.41827991 26.01538322 -26.68463135 24.25683594 C-23.9772376 21.50595785 -21.27390796 18.7515188 -18.58062744 15.98681641 C-15.96380262 13.30375484 -13.3316502 10.63657998 -10.6963501 7.97167969 C-9.48534637 6.71726074 -9.48534637 6.71726074 -8.24987793 5.4375 C-7.11784943 4.30006348 -7.11784943 4.30006348 -5.96295166 3.13964844 C-5.30313293 2.46571045 -4.64331421 1.79177246 -3.96350098 1.09741211 C-2.0557251 -0.21582031 -2.0557251 -0.21582031 0 0 Z " fill="#F70304" transform="translate(114.05572509765625,179.2158203125)"/>
<path d="M0 0 C3.6953125 0.828125 3.6953125 0.828125 7.6953125 2.828125 C5.0553125 5.468125 2.4153125 8.108125 -0.3046875 10.828125 C-1.2946875 10.333125 -1.2946875 10.333125 -2.3046875 9.828125 C-0.6546875 8.178125 0.9953125 6.528125 2.6953125 4.828125 C1.82519531 4.84552734 1.82519531 4.84552734 0.9375 4.86328125 C-0.23425781 4.87681641 -0.23425781 4.87681641 -1.4296875 4.890625 C-2.57824219 4.90802734 -2.57824219 4.90802734 -3.75 4.92578125 C-6.3046875 4.828125 -6.3046875 4.828125 -9.28125 4.015625 C-12.47363432 3.48407455 -12.47363432 3.48407455 -15.0078125 5.91796875 C-15.84828125 6.85769531 -16.68875 7.79742187 -17.5546875 8.765625 C-19.11007967 10.47891304 -20.68745739 12.17308196 -22.3046875 13.828125 C-22.9646875 13.828125 -23.6246875 13.828125 -24.3046875 13.828125 C-24.9646875 15.148125 -25.6246875 16.468125 -26.3046875 17.828125 C-26.9646875 17.828125 -27.6246875 17.828125 -28.3046875 17.828125 C-28.3046875 18.488125 -28.3046875 19.148125 -28.3046875 19.828125 C-28.9646875 19.828125 -29.6246875 19.828125 -30.3046875 19.828125 C-30.54832031 20.40949219 -30.79195312 20.99085938 -31.04296875 21.58984375 C-32.53174097 24.23091645 -34.18112012 25.67795974 -36.4921875 27.640625 C-42.03801248 32.48002718 -47.17943888 37.66679292 -52.30151367 42.95043945 C-52.92131104 43.58167725 -53.5411084 44.21291504 -54.1796875 44.86328125 C-54.73398438 45.4344165 -55.28828125 46.00555176 -55.859375 46.59399414 C-57.3046875 47.828125 -57.3046875 47.828125 -59.3046875 47.828125 C-59.5315625 48.385 -59.7584375 48.941875 -59.9921875 49.515625 C-62.23007126 53.45856306 -64.69278895 56.36246542 -69.1171875 57.640625 C-69.8390625 57.7025 -70.5609375 57.764375 -71.3046875 57.828125 C-66.50184195 52.01797124 -61.31929373 46.65651245 -55.98974609 41.32788086 C-54.53843448 39.8743471 -53.09535262 38.41294327 -51.65234375 36.95117188 C-50.73839844 36.03529297 -49.82445313 35.11941406 -48.8828125 34.17578125 C-48.05168945 33.34054932 -47.22056641 32.50531738 -46.36425781 31.64477539 C-44.3046875 29.828125 -44.3046875 29.828125 -42.3046875 29.828125 C-42.04896973 29.23330322 -41.79325195 28.63848145 -41.52978516 28.02563477 C-40.18077626 25.60586013 -38.85179211 24.3973903 -36.703125 22.66796875 C-33.5824184 20.03693628 -30.87753979 17.30385187 -28.21875 14.20703125 C-19.56321776 4.34883981 -13.60775761 -1.67267834 0 0 Z " fill="#F60202" transform="translate(154.3046875,188.171875)"/>
<path d="M0 0 C0.99 0.495 0.99 0.495 2 1 C0.84371094 2.03060547 0.84371094 2.03060547 -0.3359375 3.08203125 C-1.34911418 3.99201401 -2.36212643 4.90217987 -3.375 5.8125 C-4.13683594 6.49022461 -4.13683594 6.49022461 -4.9140625 7.18164062 C-7.32172796 9.35170752 -9.19061861 11.28592791 -11 14 C-11.66 14 -12.32 14 -13 14 C-13.23589844 14.57363281 -13.47179687 15.14726563 -13.71484375 15.73828125 C-15.28832089 18.50740972 -17.14803411 20.11309973 -19.5625 22.1875 C-25.50922735 27.40377674 -31.03959637 32.96739141 -36.5625 38.625 C-38.61068433 40.62066678 -40.69926777 42.46125556 -42.875 44.3125 C-45.63973423 46.69999012 -48.08025488 49.14818443 -50.4375 51.9375 C-52.97759767 54.94260411 -55.6527727 57.54579449 -58.625 60.125 C-63.28088033 64.17014305 -67.55032829 68.20986686 -70 74 C-70.99 71.03 -70.99 71.03 -72 68 C-68.86798885 64.82065 -65.66689822 61.75154713 -62.37583923 58.73786926 C-55.0958226 52.05469718 -48.07514644 45.13374152 -41.12109375 38.11328125 C-40.64762135 37.63588375 -40.17414894 37.15848625 -39.68632889 36.66662216 C-35.25975819 32.20331216 -30.83768119 27.73560283 -26.42749023 23.25610352 C-23.98520974 20.77608752 -21.53558979 18.30352442 -19.08119392 15.83550072 C-17.71642894 14.45890117 -16.35986703 13.07418437 -15.00352478 11.68928528 C-13.75545799 10.43603706 -13.75545799 10.43603706 -12.48217773 9.1574707 C-11.7590892 8.42470413 -11.03600067 7.69193756 -10.29100037 6.93696594 C-7.70384221 4.74960827 -5.04468441 3.46104548 -2 2 C-1.34 1.34 -0.68 0.68 0 0 Z " fill="#F80606" transform="translate(152,59)"/>
<path d="M0 0 C-20 20 -40 40 -60 60 C-60.66 59.67 -61.32 59.34 -62 59 C-61.55088303 56.70650932 -61.09042056 54.41523782 -60.625 52.125 C-60.36976562 50.84882812 -60.11453125 49.57265625 -59.8515625 48.2578125 C-59 45 -59 45 -57 43 C-57.165 44.093125 -57.33 45.18625 -57.5 46.3125 C-58.06718184 49.87525873 -58.06718184 49.87525873 -58 53 C-57.22076172 52.22076172 -57.22076172 52.22076172 -56.42578125 51.42578125 C-54.97851548 49.97851548 -53.53056488 48.5319343 -52.08203125 47.0859375 C-50.5450225 45.54604506 -49.01934226 43.99482582 -47.5 42.4375 C-45.43021639 40.41946098 -43.32436304 38.55822258 -41.125 36.6875 C-37.63307471 33.6738309 -34.68982147 30.41699997 -31.71484375 26.90234375 C-30.07467898 25.08284433 -28.39012506 23.55335445 -26.5 22 C-23.92694718 19.88437879 -21.77424005 17.67041333 -19.625 15.125 C-15.7990018 10.61049643 -11.47977229 6.85949612 -7 3 C-11.29 3.66 -15.58 4.32 -20 5 C-14.9627206 -0.0372794 -6.75857553 -0.37547642 0 0 Z " fill="#FA0202" transform="translate(143,51)"/>
<path d="M0 0 C0.99 0.495 0.99 0.495 2 1 C1.37351562 1.60328125 0.74703125 2.2065625 0.1015625 2.828125 C-0.71570313 3.62734375 -1.53296875 4.4265625 -2.375 5.25 C-3.18710938 6.03890625 -3.99921875 6.8278125 -4.8359375 7.640625 C-6.80890693 9.79166026 -7.72253785 11.44008561 -9 14 C-10.48943599 15.65277562 -12.03832207 17.2528398 -13.625 18.8125 C-14.44226563 19.62332031 -15.25953125 20.43414062 -16.1015625 21.26953125 C-18.29423048 23.33513087 -20.50685084 25.31173902 -22.7890625 27.2734375 C-28.1519494 31.92974919 -33.04875259 37.03373854 -37.99609375 42.12304688 C-38.71410156 42.85201172 -39.43210937 43.58097656 -40.171875 44.33203125 C-40.8122168 44.98921143 -41.45255859 45.6463916 -42.11230469 46.32348633 C-44.6564279 48.58299152 -46.66772057 49.91445494 -50.10644531 50.13525391 C-50.83959961 50.08288574 -51.57275391 50.03051758 -52.328125 49.9765625 C-53.12734375 49.925 -53.9265625 49.8734375 -54.75 49.8203125 C-55.575 49.75585938 -56.4 49.69140625 -57.25 49.625 C-58.51070312 49.53992188 -58.51070312 49.53992188 -59.796875 49.453125 C-61.86529042 49.31209668 -63.9327646 49.15738212 -66 49 C-64.35 47.02 -62.7 45.04 -61 43 C-60.34 43.33 -59.68 43.66 -59 44 C-59.66 44.66 -60.32 45.32 -61 46 C-55.02019813 46.95483933 -50.06154892 47.35049359 -44.8515625 43.9375 C-42.22940895 41.64039623 -39.82930605 39.13990745 -37.46728516 36.57861328 C-35.53662927 34.50147169 -33.51720999 32.52339836 -31.49462891 30.53637695 C-28.4774565 27.56292423 -25.52083038 24.52829451 -22.546875 21.51171875 C-19.82587107 18.82827469 -17.0209893 16.25037001 -14.1875 13.6875 C-9.31879367 9.25818311 -4.59411649 4.71572546 0 0 Z " fill="#FC0404" transform="translate(115,195)"/>
<path d="M0 0 C0.66 0.66 1.32 1.32 2 2 C-3.33493597 7.35823748 -8.6726696 12.71367463 -14.01386261 18.06567478 C-16.4946386 20.55164098 -18.97448773 23.0385165 -21.45214844 25.52758789 C-24.30901623 28.39752833 -27.17003731 31.26329742 -30.03125 34.12890625 C-30.90865845 35.01147598 -31.78606689 35.89404572 -32.69006348 36.80335999 C-37.11455053 41.22824475 -41.59475503 45.51293086 -46.35327148 49.578125 C-48.50343305 51.43469149 -50.50971591 53.41167512 -52.5 55.4375 C-53.50546875 56.45650391 -53.50546875 56.45650391 -54.53125 57.49609375 C-55.0159375 57.99238281 -55.500625 58.48867187 -56 59 C-56.66 58.34 -57.32 57.68 -58 57 C-55.03776042 54.03776042 -52.07552083 51.07552083 -49.11328125 48.11328125 C-48.32824219 47.32800049 -48.32824219 47.32800049 -47.52734375 46.52685547 C-46.10922904 45.10919412 -44.6894492 43.69319898 -43.26953125 42.27734375 C-41.61858128 40.62071065 -39.98989702 38.94179687 -38.375 37.25 C-36 35 -36 35 -33 34 C-32.11758884 32.60850547 -31.23712887 31.21573055 -30.3671875 29.81640625 C-28.06157249 26.75323203 -25.12499598 24.4079589 -22.21875 21.9296875 C-20.04304515 20.03743715 -18.01710275 18.05921346 -16 16 C-14.33333333 14.33333333 -12.66666667 12.66666667 -11 11 C-10.13375 10.0925 -9.2675 9.185 -8.375 8.25 C-6 6 -6 6 -3 5 C-1.8499169 3.03327085 -1.8499169 3.03327085 -1 1 C-0.67 0.67 -0.34 0.34 0 0 Z " fill="#3B3AF8" transform="translate(202,76)"/>
<path d="M0 0 C-0.33 0.66 -0.66 1.32 -1 2 C-3.00390625 2.5625 -3.00390625 2.5625 -5.5625 3 C-10.10384764 3.82332346 -14.53296675 4.84188027 -19 6 C-19 6.66 -19 7.32 -19 8 C-20.08539063 8.51949219 -21.17078125 9.03898437 -22.2890625 9.57421875 C-23.73458808 10.27820848 -25.1798887 10.98266025 -26.625 11.6875 C-27.33785156 12.02716797 -28.05070312 12.36683594 -28.78515625 12.71679688 C-39.97774832 18.21040858 -49.93960826 28.49910967 -55 40 C-55.66 38.68 -56.32 37.36 -57 36 C-45.22778614 18.20919449 -31.47885359 6.5138678 -10.6875 0.6875 C-6.94835734 -0.00962829 -3.78113472 -0.15754728 0 0 Z " fill="#F70D0E" transform="translate(144,49)"/>
<path d="M0 0 C0.91434814 -0.00315216 1.82869629 -0.00630432 2.77075195 -0.009552 C3.76034912 -0.00752777 4.74994629 -0.00550354 5.76953125 -0.00341797 C7.28969849 -0.00485306 7.28969849 -0.00485306 8.84057617 -0.00631714 C10.98584047 -0.00699842 13.13110683 -0.00514772 15.27636719 -0.00097656 C18.56840628 0.00437239 21.86030893 -0.00092331 25.15234375 -0.00732422 C27.23307322 -0.00666343 29.3138026 -0.00538225 31.39453125 -0.00341797 C32.38412842 -0.0054422 33.37372559 -0.00746643 34.39331055 -0.009552 C35.30765869 -0.00639984 36.22200684 -0.00324768 37.1640625 0 C37.97077393 0.00079559 38.77748535 0.00159119 39.60864258 0.00241089 C41.58203125 0.12939453 41.58203125 0.12939453 43.58203125 1.12939453 C43.58203125 5.41939453 43.58203125 9.70939453 43.58203125 14.12939453 C42.59203125 14.45939453 41.60203125 14.78939453 40.58203125 15.12939453 C40.58203125 10.83939453 40.58203125 6.54939453 40.58203125 2.12939453 C34.4976868 2.02450524 28.417734 1.98621832 22.33251953 2.00732422 C20.2666698 2.00538779 18.20075344 1.98583973 16.13525391 1.94775391 C3.93308158 1.2184878 3.93308158 1.2184878 -7.06347656 5.43115234 C-9.50917987 7.87685565 -11.53992324 10.23163157 -13.41796875 13.12939453 C-14.07796875 12.46939453 -14.73796875 11.80939453 -15.41796875 11.12939453 C-13.80202043 9.08819665 -12.13233055 7.08866516 -10.41796875 5.12939453 C-9.75796875 5.12939453 -9.09796875 5.12939453 -8.41796875 5.12939453 C-7.98484375 4.17033203 -7.98484375 4.17033203 -7.54296875 3.19189453 C-5.6706118 -0.24075987 -3.6273027 0.00357731 0 0 Z " fill="#4946F7" transform="translate(160.41796875,231.87060546875)"/>
<path d="M0 0 C0.66 0.99 1.32 1.98 2 3 C1.55833496 3.41137207 1.11666992 3.82274414 0.66162109 4.24658203 C-1.4363381 6.20348371 -3.53122549 8.16362134 -5.625 10.125 C-6.3895752 10.84115479 -7.15415039 11.55730957 -7.94189453 12.29516602 C-13.63306231 17.65180216 -19.19118518 23.12171532 -24.61962891 28.74462891 C-28.68051805 32.89350602 -28.68051805 32.89350602 -32 34 C-32.33 33.34 -32.66 32.68 -33 32 C-32.01 30.515 -32.01 30.515 -31 29 C-30.34 29 -29.68 29 -29 29 C-28.76410156 28.42636719 -28.52820313 27.85273438 -28.28515625 27.26171875 C-26.71167911 24.49259028 -24.85196589 22.88690027 -22.4375 20.8125 C-18.96193494 17.76700486 -15.61440886 14.67074641 -12.375 11.375 C-8.42404744 7.36770587 -4.29208298 3.63716023 0 0 Z " fill="#F70F10" transform="translate(150,200)"/>
<path d="M0 0 C0.495 1.98 0.495 1.98 1 4 C0.34 4 -0.32 4 -1 4 C-1.17015625 4.59167969 -1.3403125 5.18335938 -1.515625 5.79296875 C-3.95310078 13.74069563 -7.77708408 17.95938534 -14.03515625 23.28515625 C-15.73993869 24.773028 -17.31402728 26.30241581 -18.875 27.9375 C-21 30 -21 30 -23 30 C-23.08636719 30.58652344 -23.17273438 31.17304688 -23.26171875 31.77734375 C-24.203792 34.61353253 -25.52567584 35.66600575 -27.8125 37.5625 C-28.49957031 38.14128906 -29.18664062 38.72007812 -29.89453125 39.31640625 C-31.90040693 40.9203625 -33.93493465 42.47324382 -36 44 C-36 41 -36 41 -33.63256836 38.35546875 C-32.541842 37.29240685 -31.44369134 36.23693084 -30.33984375 35.1875 C-29.14115092 34.01705521 -27.94258761 32.84647776 -26.74414062 31.67578125 C-24.85400117 29.84724237 -22.96062382 28.02220489 -21.0637207 26.20068359 C-13.5707587 18.98348157 -7.13206249 12.15969297 -2 3 C-1.34 2.01 -0.68 1.02 0 0 Z " fill="#3635F7" transform="translate(212,150)"/>
<path d="M0 0 C0.66 0.66 1.32 1.32 2 2 C-24 28 -24 28 -26.70703125 30.69921875 C-28.22023783 32.21758106 -29.71438677 33.75520887 -31.1875 35.3125 C-33 37 -33 37 -35 37 C-34.43414739 33.55726768 -33.49381519 32.23657358 -30.78125 30.08984375 C-26.82715908 26.78447087 -23.16700279 23.27483759 -19.53125 19.62890625 C-18.96132324 19.05796234 -18.39139648 18.48701843 -17.80419922 17.89877319 C-16.03415704 16.12196924 -14.267021 14.34230801 -12.5 12.5625 C-11.28408886 11.3415631 -10.06794484 10.12085808 -8.8515625 8.90039062 C-5.89835034 5.93625987 -2.94830602 2.96901042 0 0 Z " fill="#4140F8" transform="translate(38,208)"/>
<path d="M0 0 C0.66 0 1.32 0 2 0 C2.22601462 4.08255655 2.42774673 8.16596075 2.625 12.25 C2.68945312 13.40886719 2.75390625 14.56773437 2.8203125 15.76171875 C2.89765625 17.43427734 2.89765625 17.43427734 2.9765625 19.140625 C3.02893066 20.16704102 3.08129883 21.19345703 3.13525391 22.25097656 C2.99657225 25.06966869 2.45992606 26.61827763 1 29 C-3.12494151 29.05784708 -7.24977944 29.09354407 -11.375 29.125 C-12.550625 29.14175781 -13.72625 29.15851563 -14.9375 29.17578125 C-16.61972656 29.18544922 -16.61972656 29.18544922 -18.3359375 29.1953125 C-19.37282715 29.20578613 -20.4097168 29.21625977 -21.47802734 29.22705078 C-24 29 -24 29 -26 27 C-24.25493385 25.25493385 -21.80960857 25.76717216 -19.43359375 25.68359375 C-18.42095459 25.64548584 -17.40831543 25.60737793 -16.36499023 25.56811523 C-14.42088257 25.50346069 -14.42088257 25.50346069 -12.4375 25.4375 C-8.333125 25.293125 -4.22875 25.14875 0 25 C0 16.75 0 8.5 0 0 Z " fill="#3132FC" transform="translate(200,191)"/>
<path d="M0 0 C2.75 0.81640625 2.75 0.81640625 5.3125 1.8125 C6.42625 2.22822266 6.42625 2.22822266 7.5625 2.65234375 C9.17453727 3.30560885 10.74987424 4.04854963 12.3125 4.8125 C11.6525 5.4725 10.9925 6.1325 10.3125 6.8125 C9.9825 6.4825 9.6525 6.1525 9.3125 5.8125 C6.88272112 5.43914373 4.50655067 5.15843113 2.0625 4.9375 C1.39347656 4.85242187 0.72445312 4.76734375 0.03515625 4.6796875 C-2.24375441 4.42698364 -2.24375441 4.42698364 -5.6875 4.8125 C-8.54369234 7.09011458 -8.54369234 7.09011458 -10.6875 9.8125 C-12.97898936 11.30463261 -15.24569818 12.59159909 -17.6875 13.8125 C-14.56776217 6.62867126 -8.4764457 -1.48689034 0 0 Z " fill="#F6090A" transform="translate(165.6875,49.1875)"/>
<path d="M0 0 C0.66 0.33 1.32 0.66 2 1 C-0.27908853 6.43106954 -4.79728113 10.13151876 -8.90332031 14.21899414 C-10.37201058 15.68451702 -11.82685761 17.16288127 -13.28125 18.64257812 C-14.20679688 19.56876953 -15.13234375 20.49496094 -16.0859375 21.44921875 C-16.9320459 22.29830811 -17.7781543 23.14739746 -18.64990234 24.0222168 C-20.90043373 25.91620753 -22.12890312 26.6343844 -25 27 C-23.68226796 23.99171418 -22.39598781 22.26003628 -19.8125 20.25 C-17.1069382 18.03076852 -14.81837557 15.73747172 -12.5625 13.0625 C-9.52267751 9.47123578 -6.21811021 6.447466 -2.6015625 3.4453125 C-0.88412185 2.07190983 -0.88412185 2.07190983 0 0 Z " fill="#4444F9" transform="translate(197,189)"/>
<path d="M0 0 C0.33 0.66 0.66 1.32 1 2 C-2.8637519 6.48729687 -6.75422083 10.86595186 -11 15 C-11.78375 15.78375 -12.5675 16.5675 -13.375 17.375 C-14.674375 18.674375 -14.674375 18.674375 -16 20 C-16.55945313 20.59425781 -17.11890625 21.18851563 -17.6953125 21.80078125 C-20.89921767 25.15031848 -23.39041583 27.74284068 -28 29 C-22.61359076 22.44622903 -16.64114873 16.52753365 -10.625 10.5625 C-9.59221405 9.53474017 -8.55966009 8.50674715 -7.52734375 7.47851562 C-5.02089713 4.98298402 -2.5113292 2.49061918 0 0 Z " fill="#3836F6" transform="translate(174,193)"/>
<path d="M0 0 C-0.66 0.639375 -1.32 1.27875 -2 1.9375 C-7.84079859 7.8115795 -13.21327254 13.58432539 -17 21 C-17.66 19.68 -18.32 18.36 -19 17 C-7.9115992 0.69545799 -7.9115992 0.69545799 -3.94921875 -0.74609375 C-2 -1 -2 -1 0 0 Z " fill="#F80505" transform="translate(106,68)"/>
<path d="M0 0 C0.33 0.99 0.66 1.98 1 3 C-0.328125 5.0078125 -0.328125 5.0078125 -2.25 7.125 C-2.87390625 7.82882813 -3.4978125 8.53265625 -4.140625 9.2578125 C-6 11 -6 11 -9 12 C-9.268125 12.556875 -9.53625 13.11375 -9.8125 13.6875 C-11.5265359 17.02535938 -14.01520181 19.7215281 -17 22 C-17.99 22 -18.98 22 -20 22 C-20.33 22.66 -20.66 23.32 -21 24 C-20.42179137 20.5307482 -19.27319323 18.91348917 -16.75 16.5 C-16.11964844 15.89414063 -15.48929687 15.28828125 -14.83984375 14.6640625 C-13.38035188 13.34401253 -11.85615504 12.09556445 -10.3125 10.875 C-7.77468258 8.8173102 -5.99727278 6.57712616 -4 4 C-2.68505488 2.64852862 -1.35735142 1.30887458 0 0 Z " fill="#3836F8" transform="translate(143,223)"/>
<path d="M0 0 C0.33 0.66 0.66 1.32 1 2 C10.24 2 19.48 2 29 2 C29 2.66 29 3.32 29 4 C18.77 4 8.54 4 -2 4 C-1.34 2.68 -0.68 1.36 0 0 Z " fill="#6868F9" transform="translate(2,243)"/>
<path d="M0 0 C0.66 0.99 1.32 1.98 2 3 C1.09325024 3.98835723 0.17410978 4.96535481 -0.75 5.9375 C-1.26046875 6.48277344 -1.7709375 7.02804688 -2.296875 7.58984375 C-4 9 -4 9 -5.890625 9.390625 C-8.48856048 10.14113969 -9.57617718 11.23107099 -11.453125 13.16015625 C-12.38125 14.1027832 -12.38125 14.1027832 -13.328125 15.06445312 C-14.27945313 16.05348633 -14.27945313 16.05348633 -15.25 17.0625 C-16.22453125 18.05733398 -16.22453125 18.05733398 -17.21875 19.07226562 C-18.8194676 20.70829317 -20.41276193 22.35090912 -22 24 C-22.66 23.67 -23.32 23.34 -24 23 C-21.50434749 20.47483195 -19.00267549 17.95570627 -16.5 15.4375 C-15.80390625 14.73302734 -15.1078125 14.02855469 -14.390625 13.30273438 C-9.7644338 8.65512562 -4.99457142 4.24925096 0 0 Z " fill="#FC0303" transform="translate(150,200)"/>
<path d="M0 0 C0.66 0.33 1.32 0.66 2 1 C4.78163509 10.34079932 4.2054588 20.36626508 4 30 C3.34 30 2.68 30 2 30 C2 23.73 2 17.46 2 11 C1.34 11 0.68 11 0 11 C-0.33 9.35 -0.66 7.7 -1 6 C-0.34 6 0.32 6 1 6 C0.67 4.02 0.34 2.04 0 0 Z " fill="#4343FB" transform="translate(219,97)"/>
<path d="M0 0 C0.66 0 1.32 0 2 0 C2 1.98 2 3.96 2 6 C1.01 6.33 0.02 6.66 -1 7 C-1.50220072 9.6245966 -2.00185357 12.24963369 -2.5 14.875 C-2.64308594 15.62136719 -2.78617187 16.36773437 -2.93359375 17.13671875 C-3.71576424 21.04078102 -3.71576424 21.04078102 -4 25 C-4.99 25 -5.98 25 -7 25 C-5.83670782 16.22938922 -3.98045352 7.96090705 0 0 Z " fill="#F60E0E" transform="translate(86,87)"/>
<path d="M0 0 C-1.57972542 4.11891598 -4.58215345 6.59776367 -7.8125 9.4375 C-8.86168979 10.37256284 -9.90987625 11.30875276 -10.95703125 12.24609375 C-11.46443848 12.69968262 -11.9718457 13.15327148 -12.49462891 13.62060547 C-14.73789491 15.67614438 -16.86854123 17.82914273 -19 20 C-19.66 19.67 -20.32 19.34 -21 19 C-20.18595703 18.22076172 -20.18595703 18.22076172 -19.35546875 17.42578125 C-14.97826006 13.26038228 -14.97826006 13.26038228 -11.5 8.375 C-9.20916756 4.74784863 -4.51837533 0 0 0 Z " fill="#F70A0B" transform="translate(100,213)"/>
<path d="M0 0 C0.66 0.33 1.32 0.66 2 1 C0.47229036 4.75526392 -1.78622306 6.85030625 -4.8125 9.5 C-5.66457031 10.2528125 -6.51664063 11.005625 -7.39453125 11.78125 C-9.89083329 13.90703644 -12.42727137 15.96768295 -15 18 C-15 15 -15 15 -13.62304688 13.2824707 C-12.99462891 12.66976318 -12.36621094 12.05705566 -11.71875 11.42578125 C-11.04199219 10.75869141 -10.36523438 10.09160156 -9.66796875 9.40429688 C-8.95253906 8.71400391 -8.23710938 8.02371094 -7.5 7.3125 C-6.42685547 6.2596582 -6.42685547 6.2596582 -5.33203125 5.18554688 C-3.56120423 3.45013639 -1.78376544 1.7220927 0 0 Z " fill="#3D3CF8" transform="translate(109,167)"/>
<path d="M0 0 C-1.32120828 2.93230193 -2.74638197 4.98664899 -5.0390625 7.234375 C-5.90917969 8.09482422 -5.90917969 8.09482422 -6.796875 8.97265625 C-7.40015625 9.55917969 -8.0034375 10.14570313 -8.625 10.75 C-9.23601562 11.35199219 -9.84703125 11.95398438 -10.4765625 12.57421875 C-11.97988624 14.05405305 -13.48934856 15.52764676 -15 17 C-15.66 16.34 -16.32 15.68 -17 15 C-13 11 -9 7 -5 3 C-4.48606689 2.44481689 -3.97213379 1.88963379 -3.44262695 1.31762695 C-2 0 -2 0 0 0 Z " fill="#3839F8" transform="translate(161,118)"/>
<path d="M0 0 C0.99 0.33 1.98 0.66 3 1 C-4.11389522 9.6309795 -4.11389522 9.6309795 -9 12 C-9 9 -9 9 -7.03125 6.73828125 C-5.77828125 5.53751953 -5.77828125 5.53751953 -4.5 4.3125 C-3.6646875 3.50425781 -2.829375 2.69601563 -1.96875 1.86328125 C-1.3190625 1.24839844 -0.669375 0.63351563 0 0 Z " fill="#4342F8" transform="translate(52,194)"/>
<path d="M0 0 C1.63001953 0.15275391 1.63001953 0.15275391 3.29296875 0.30859375 C4.54013672 0.43427734 4.54013672 0.43427734 5.8125 0.5625 C4.26055246 3.89009923 2.50628051 6.04830485 -0.1875 8.5625 C-0.8475 8.2325 -1.5075 7.9025 -2.1875 7.5625 C-0.5375 5.9125 1.1125 4.2625 2.8125 2.5625 C2.19761719 2.58570313 1.58273438 2.60890625 0.94921875 2.6328125 C-0.26314453 2.65988281 -0.26314453 2.65988281 -1.5 2.6875 C-2.30050781 2.71070313 -3.10101563 2.73390625 -3.92578125 2.7578125 C-6.1875 2.5625 -6.1875 2.5625 -9.1875 0.5625 C-5.76060364 -0.57979879 -3.57647782 -0.34611076 0 0 Z " fill="#FD0707" transform="translate(154.1875,190.4375)"/>
<path d="M0 0 C0.66 0.99 1.32 1.98 2 3 C-0.97 5.97 -3.94 8.94 -7 12 C-7.66 11.67 -8.32 11.34 -9 11 C-7.59155282 7.78475695 -5.89655214 5.67816132 -3.375 3.25 C-2.74335937 2.63640625 -2.11171875 2.0228125 -1.4609375 1.390625 C-0.73777344 0.70226562 -0.73777344 0.70226562 0 0 Z " fill="#4243FC" transform="translate(119,157)"/>
<path d="M0 0 C0.66 0.33 1.32 0.66 2 1 C1.50628906 1.47050781 1.01257813 1.94101563 0.50390625 2.42578125 C-0.45708984 3.35970703 -0.45708984 3.35970703 -1.4375 4.3125 C-2.07558594 4.92738281 -2.71367188 5.54226562 -3.37109375 6.17578125 C-5.2221418 8.00644056 -5.2221418 8.00644056 -6 11 C-11.94 10.01 -11.94 10.01 -18 9 C-18 8.67 -18 8.34 -18 8 C-17.28714844 8.00902344 -16.57429688 8.01804688 -15.83984375 8.02734375 C-10.27969203 7.855226 -6.81367779 7.52100655 -2.8125 3.4375 C-1.84771029 2.31454804 -0.89954958 1.17586174 0 0 Z " fill="#FB0706" transform="translate(113,235)"/>
<path d="M0 0 C0.99 0.66 1.98 1.32 3 2 C0.03 4.97 -2.94 7.94 -6 11 C-6.99 10.34 -7.98 9.68 -9 9 C-6.03 6.03 -3.06 3.06 0 0 Z " fill="#3D3DFA" transform="translate(64,182)"/>
<path d="M0 0 C-0.33 0.66 -0.66 1.32 -1 2 C-2.93359375 2.5625 -2.93359375 2.5625 -5.4375 3 C-6.33082031 3.16242187 -7.22414062 3.32484375 -8.14453125 3.4921875 C-9.08683594 3.65976562 -10.02914062 3.82734375 -11 4 C-12.87587353 4.3706056 -14.75093112 4.74537407 -16.625 5.125 C-18.08333333 5.41666667 -19.54166667 5.70833333 -21 6 C-21 5.34 -21 4.68 -21 4 C-18.81613582 3.32151792 -16.62769916 2.6577449 -14.4375 2 C-13.21933594 1.62875 -12.00117188 1.2575 -10.74609375 0.875 C-7.02076651 0.00485057 -3.80934051 -0.15688404 0 0 Z " fill="#F41E1F" transform="translate(144,49)"/>
<path d="M0 0 C0.99 0 1.98 0 3 0 C3 3.96 3 7.92 3 12 C2.01 12.33 1.02 12.66 0 13 C0 8.71 0 4.42 0 0 Z " fill="#3A3BFB" transform="translate(201,234)"/>
<path d="M0 0 C0.66 0.66 1.32 1.32 2 2 C-0.97 4.97 -3.94 7.94 -7 11 C-7.66 10.01 -8.32 9.02 -9 8 C-7.87811441 6.85111717 -6.75238316 5.70598863 -5.625 4.5625 C-4.99851562 3.92441406 -4.37203125 3.28632813 -3.7265625 2.62890625 C-2 1 -2 1 0 0 Z " fill="#3232F7" transform="translate(79,168)"/>
<path d="M0 0 C6.42590164 0.9877064 12.14202052 2.13609892 18 5 C17.34 5.66 16.68 6.32 16 7 C14.845 6.54625 13.69 6.0925 12.5 5.625 C8.38742433 4.07544024 4.27872379 2.99327517 0 2 C0 1.34 0 0.68 0 0 Z " fill="#F21C1F" transform="translate(160,49)"/>
<path d="M0 0 C-3.50897269 4.18423892 -7.08060535 8.19588166 -11 12 C-11.66 11.67 -12.32 11.34 -13 11 C-10.36 8.36 -7.72 5.72 -5 3 C-5.99 2.34 -6.98 1.68 -8 1 C-5.29120665 -0.35439668 -2.99066732 -0.06501451 0 0 Z " fill="#F0191E" transform="translate(166,188)"/>
<path d="M0 0 C0.66 0 1.32 0 2 0 C0.99667352 5.94074887 -0.30912706 10.20186518 -4 15 C-4.66 14.67 -5.32 14.34 -6 14 C-5.38125 12.989375 -4.7625 11.97875 -4.125 10.9375 C-2.07056045 7.36772915 -0.97730425 3.990659 0 0 Z " fill="#5E5EF7" transform="translate(247,212)"/>
<path d="M0 0 C1.32 0.33 2.64 0.66 4 1 C1.36 3.64 -1.28 6.28 -4 9 C-4.66 8.01 -5.32 7.02 -6 6 C-5.09972412 4.96468274 -4.17906965 3.94705835 -3.25 2.9375 C-2.48429688 2.08478516 -2.48429688 2.08478516 -1.703125 1.21484375 C-1.14109375 0.81394531 -0.5790625 0.41304688 0 0 Z " fill="#2727FA" transform="translate(166,111)"/>
<path d="M0 0 C0.99 0.33 1.98 0.66 3 1 C1.88121617 2.17262904 0.75476949 3.33795138 -0.375 4.5 C-1.00148438 5.1496875 -1.62796875 5.799375 -2.2734375 6.46875 C-4 8 -4 8 -6 8 C-5.66354211 4.85972637 -4.94763914 3.94901705 -2.625 1.6875 C-1.75875 1.130625 -0.8925 0.57375 0 0 Z " fill="#3638FC" transform="translate(126,151)"/>
<path d="M0 0 C0.33 0.99 0.66 1.98 1 3 C-1.25 6.1875 -1.25 6.1875 -4 9 C-4.99 9 -5.98 9 -7 9 C-5.44499019 5.18315774 -2.96404505 2.80804268 0 0 Z " fill="#2724F9" transform="translate(143,223)"/>
<path d="M0 0 C0.58265625 0.23203125 1.1653125 0.4640625 1.765625 0.703125 C-0.234375 2.703125 -0.234375 2.703125 -2.046875 3.515625 C-4.97008866 5.10251242 -6.95978382 7.30216764 -9.234375 9.703125 C-9.234375 6.02240239 -8.49705757 5.50803753 -5.984375 2.953125 C-5.38109375 2.31890625 -4.7778125 1.6846875 -4.15625 1.03125 C-2.234375 -0.296875 -2.234375 -0.296875 0 0 Z " fill="#F40C0F" transform="translate(56.234375,236.296875)"/>
<path d="M0 0 C0.66 0.66 1.32 1.32 2 2 C-0.31 4.31 -2.62 6.62 -5 9 C-5.33 8.01 -5.66 7.02 -6 6 C-4 4 -2 2 0 0 Z " fill="#3A37F6" transform="translate(71,205)"/>
<path d="M0 0 C0.66 0.66 1.32 1.32 2 2 C-1.44615385 6.8 -1.44615385 6.8 -4.25 7.8125 C-5.11625 7.9053125 -5.11625 7.9053125 -6 8 C-5.65120368 4.74456771 -4.97866739 3.98126893 -2.4375 1.75 C-1.633125 1.1725 -0.82875 0.595 0 0 Z " fill="#3938F9" transform="translate(9,237)"/>
<path d="M0 0 C-1.28519565 2.86697492 -2.57129254 4.97607712 -5 7 C-5.66 7 -6.32 7 -7 7 C-6.22006468 2.47637516 -4.81844319 0 0 0 Z " fill="#2F2FF9" transform="translate(57,221)"/>
<path d="M0 0 C0.99 0.33 1.98 0.66 3 1 C0.69 3.31 -1.62 5.62 -4 8 C-4.66 7.67 -5.32 7.34 -6 7 C-6 6.34 -6 5.68 -6 5 C-3.1875 2.3125 -3.1875 2.3125 0 0 Z " fill="#3938F8" transform="translate(84,192)"/>
<path d="M0 0 C0.66 0.33 1.32 0.66 2 1 C0.84826645 3.46800047 -0.04783565 5.04783565 -2 7 C-4.125 6.625 -4.125 6.625 -6 6 C-4.625 4.5 -4.625 4.5 -3 3 C-2.34 3 -1.68 3 -1 3 C-0.67 2.01 -0.34 1.02 0 0 Z " fill="#4244F9" transform="translate(132,144)"/>
<path d="M0 0 C-1.44077046 3.36179774 -3.24750021 5.59156268 -6 8 C-6.66 8 -7.32 8 -8 8 C-6.48291727 4.46014029 -4.24676932 0 0 0 Z " fill="#4041F9" transform="translate(161,118)"/>
<path d="M0 0 C0.66 0.66 1.32 1.32 2 2 C0.02 3.98 -1.96 5.96 -4 8 C-4.99 7.67 -5.98 7.34 -7 7 C-4.69 4.69 -2.38 2.38 0 0 Z " fill="#3937F7" transform="translate(104,143)"/>
<path d="M0 0 C-1.44253657 3.36591866 -3.33264727 5.51047079 -6 8 C-6 4 -6 4 -4.125 1.75 C-2 0 -2 0 0 0 Z " fill="#4645F7" transform="translate(17,231)"/>
<path d="M0 0 C0.33 1.32 0.66 2.64 1 4 C0.34 4 -0.32 4 -1 4 C-1.66 5.98 -2.32 7.96 -3 10 C-3.66 10 -4.32 10 -5 10 C-3.66511872 6.40608886 -2.03977277 3.24509304 0 0 Z " fill="#2B2CF9" transform="translate(212,150)"/>
<path d="M0 0 C0.66 0.99 1.32 1.98 2 3 C0.75 4.5625 0.75 4.5625 -1 6 C-3.1875 5.6875 -3.1875 5.6875 -5 5 C-3.35 3.35 -1.7 1.7 0 0 Z " fill="#4644F9" transform="translate(149,98)"/>
<path d="M0 0 C0.66 0.33 1.32 0.66 2 1 C1.34 2.32 0.68 3.64 0 5 C-1.32 5 -2.64 5 -4 5 C-2.68 3.35 -1.36 1.7 0 0 Z " fill="#2B2CF9" transform="translate(109,167)"/>
<path d="M0 0 C0.66 0.33 1.32 0.66 2 1 C-0.46153846 5.8 -0.46153846 5.8 -3.1875 6.8125 C-3.785625 6.874375 -4.38375 6.93625 -5 7 C-3.70700306 4.11562221 -2.34058637 2.12780579 0 0 Z " fill="#4643F3" transform="translate(125,122)"/>
</svg>
